<svg width="45" height="44" viewBox="0 0 45 44" fill="none" xmlns="http://www.w3.org/2000/svg">
<path d="M27.658 16.091C27.658 14.8338 26.6523 13.8281 25.3951 13.8281H18.6066C17.3495 13.8281 16.3438 14.8338 16.3438 16.091V22.8167C16.3438 24.0738 17.3495 25.0795 18.6066 25.0795H25.3323C26.5894 25.0795 27.5951 24.0738 27.5951 22.8167V16.091H27.658ZM26.4008 22.8795C26.4008 23.4452 25.9609 23.8852 25.3951 23.8852H18.6066C18.0409 23.8852 17.6009 23.4452 17.6009 22.8795V16.091C17.6009 15.5253 18.0409 15.0853 18.6066 15.0853H25.3323C25.898 15.0853 26.338 15.5253 26.338 16.091V22.8795H26.4008Z" fill="black"/>
<path d="M40.2283 16.091C40.2283 14.8338 39.2226 13.8281 37.9655 13.8281H31.1769C29.9198 13.8281 28.9141 14.8338 28.9141 16.091V22.8167C28.9141 24.0738 29.9198 25.0795 31.1769 25.0795H37.9026C39.1597 25.0795 40.1654 24.0738 40.1654 22.8167V16.091H40.2283ZM38.9712 22.8795C38.9712 23.4452 38.5312 23.8852 37.9655 23.8852H31.1769C30.6112 23.8852 30.1712 23.4452 30.1712 22.8795V16.091C30.1712 15.5253 30.6112 15.0853 31.1769 15.0853H37.9026C38.4683 15.0853 38.9083 15.5253 38.9083 16.091V22.8795H38.9712Z" fill="black"/>
<path d="M12.8219 26.3997H6.03336C4.77622 26.3997 3.77051 27.4054 3.77051 28.6625V35.3882C3.77051 36.6453 4.77622 37.651 6.03336 37.651H12.759C14.0162 37.651 15.0219 36.6453 15.0219 35.3882V28.6625C15.0847 27.4054 14.079 26.3997 12.8219 26.3997ZM13.8276 35.451C13.8276 36.0168 13.3876 36.4568 12.8219 36.4568H6.03336C5.46764 36.4568 5.02765 36.0168 5.02765 35.451V28.6625C5.02765 28.0968 5.46764 27.6568 6.03336 27.6568H12.759C13.3248 27.6568 13.7648 28.0968 13.7648 28.6625V35.451H13.8276Z" fill="black"/>
<path d="M12.5719 14.0796H5.78336C4.52622 14.0796 3.52051 15.0853 3.52051 16.3424V23.0681C3.52051 24.3253 4.52622 25.331 5.78336 25.331H12.509C13.7662 25.331 14.7719 24.3253 14.7719 23.0681V16.3424C14.8347 15.0853 13.829 14.0796 12.5719 14.0796ZM13.5776 23.131C13.5776 23.6967 13.1376 24.1367 12.5719 24.1367H5.78336C5.21764 24.1367 4.77765 23.6967 4.77765 23.131V16.3424C4.77765 15.7767 5.21764 15.3367 5.78336 15.3367H12.509C13.0748 15.3367 13.5148 15.7767 13.5148 16.3424V23.131H13.5776Z" fill="black"/>
<path d="M25.3951 26.3997H18.6066C17.3495 26.3997 16.3438 27.4054 16.3438 28.6625V35.3882C16.3438 36.6453 17.3495 37.651 18.6066 37.651H25.3323C26.5894 37.651 27.5951 36.6453 27.5951 35.3882V28.6625C27.658 27.4054 26.6523 26.3997 25.3951 26.3997ZM26.4008 35.451C26.4008 36.0168 25.9609 36.4568 25.3951 36.4568H18.6066C18.0409 36.4568 17.6009 36.0168 17.6009 35.451V28.6625C17.6009 28.0968 18.0409 27.6568 18.6066 27.6568H25.3323C25.898 27.6568 26.338 28.0968 26.338 28.6625V35.451H26.4008Z" fill="black"/>
<path d="M37.9655 26.3997H31.1769C29.9198 26.3997 28.9141 27.4054 28.9141 28.6625V35.3882C28.9141 36.6453 29.9198 37.651 31.1769 37.651H37.9026C39.1597 37.651 40.1654 36.6453 40.1654 35.3882V28.6625C40.2283 27.4054 39.2226 26.3997 37.9655 26.3997ZM38.9712 35.451C38.9712 36.0168 38.5312 36.4568 37.9655 36.4568H31.1769C30.6112 36.4568 30.1712 36.0168 30.1712 35.451V28.6625C30.1712 28.0968 30.6112 27.6568 31.1769 27.6568H37.9026C38.4683 27.6568 38.9083 28.0968 38.9083 28.6625V35.451H38.9712Z" fill="black"/>
<path d="M9.11439 10.0571H10.4344C11.3144 10.0571 12.0058 9.36567 12.0058 8.48568V1.57142C12.0058 0.691426 11.3144 0 10.4344 0H9.11439C8.23439 0 7.54297 0.691426 7.54297 1.57142V8.54854C7.54297 9.36567 8.23439 10.0571 9.11439 10.0571ZM8.80011 1.57142C8.80011 1.44571 8.92582 1.25714 9.11439 1.25714H10.4344C10.5601 1.25714 10.7487 1.38285 10.7487 1.57142V8.54854C10.7487 8.67425 10.623 8.86282 10.4344 8.86282H9.11439C8.98868 8.86282 8.80011 8.73711 8.80011 8.54854V1.57142Z" fill="black"/>
<path d="M33.6281 10.0571H34.9481C35.8281 10.0571 36.5195 9.36567 36.5195 8.48568V1.57142C36.5195 0.691426 35.8281 0 34.9481 0H33.6281C32.7481 0 32.0566 0.691426 32.0566 1.57142V8.54854C32.0566 9.36567 32.7481 10.0571 33.6281 10.0571ZM33.3138 1.57142C33.3138 1.44571 33.4395 1.25714 33.6281 1.25714H34.9481C35.0738 1.25714 35.2623 1.38285 35.2623 1.57142V8.54854C35.2623 8.67425 35.1366 8.86282 34.9481 8.86282H33.6281C33.5023 8.86282 33.3138 8.73711 33.3138 8.54854V1.57142Z" fill="black"/>
<path d="M13.1989 5.65704H30.7988C31.1759 5.65704 31.4274 5.40561 31.4274 5.02847C31.4274 4.65133 31.1759 4.3999 30.7988 4.3999H13.1989C12.8217 4.3999 12.5703 4.65133 12.5703 5.02847C12.5703 5.40561 12.8217 5.65704 13.1989 5.65704Z" fill="black"/>
<path d="M4.58855 43.9997H39.4741C41.9884 43.9997 44.0627 41.9255 44.0627 39.4112V8.98845C44.0627 6.47418 41.9884 4.3999 39.4741 4.3999H37.7141C37.337 4.3999 37.0856 4.65133 37.0856 5.02847C37.0856 5.40561 37.337 5.65704 37.7141 5.65704H39.4113C41.2341 5.65704 42.7427 7.1656 42.7427 8.98845V39.474C42.7427 41.2969 41.2341 42.8055 39.4113 42.8055H4.58855C2.7657 42.8055 1.25714 41.2969 1.25714 39.474V8.98845C1.25714 7.1656 2.7657 5.65704 4.58855 5.65704H6.28569C6.66283 5.65704 6.91426 5.40561 6.91426 5.02847C6.91426 4.65133 6.66283 4.3999 6.28569 4.3999H4.58855C2.07428 4.3999 0 6.47418 0 8.98845V39.474C0 41.9255 2.07428 43.9997 4.58855 43.9997Z" fill="black"/>
</svg>
